<?xml version="1.0" encoding="utf-8"?>
<!-- Generator: Adobe Illustrator 25.2.3, SVG Export Plug-In . SVG Version: 6.00 Build 0)  -->
<svg version="1.1" id="Layer_1" xmlns="http://www.w3.org/2000/svg" xmlns:xlink="http://www.w3.org/1999/xlink" x="0px" y="0px"
	 viewBox="0 0 128 128" style="enable-background:new 0 0 128 128;" xml:space="preserve">
<style type="text/css">
	.st0{fill:#8252AB;}
	.st1{opacity:0.1;}
	.st2{opacity:0.25;fill:none;stroke:#000000;stroke-width:4;stroke-linecap:round;stroke-miterlimit:10;}
	.st3{fill:#FDCE02;}
</style>
<g>
	<path class="st0" d="M27.5,11.5C20.2,21.8,16,34.4,16,48c0,35.3,28.7,64,64,64c13.6,0,26.2-4.2,36.5-11.5c-0.7,1-1.4,1.9-2.1,2.9
		C122.9,92.5,128,78.9,128,64c0-35.3-28.7-64-64-64C49.1,0,35.5,5.1,24.6,13.6C25.5,12.9,26.5,12.1,27.5,11.5z"/>
</g>
<circle class="st1" cx="32" cy="64" r="16"/>
<circle class="st1" cx="104" cy="64" r="16"/>
<circle class="st1" cx="76" cy="92" r="12"/>
<path class="st2" d="M56,32c0,4.4-3.6,8-8,8s-8-3.6-8-8"/>
<path class="st2" d="M88,32c0,4.4-3.6,8-8,8s-8-3.6-8-8"/>
<path class="st2" d="M72,64c0,4.4-3.6,8-8,8s-8-3.6-8-8"/>
<path class="st3" d="M80,112c-35.3,0-64-28.7-64-64c0-13.6,4.2-26.2,11.5-36.5C10.9,23,0,42.2,0,64c0,35.3,28.7,64,64,64
	c21.8,0,41-10.9,52.5-27.5C106.2,107.8,93.6,112,80,112z"/>
</svg>
